<?xml version="1.0" encoding="UTF-8"?>
<svg width="32" height="20" viewBox="0 0 32 20" fill="none" xmlns="http://www.w3.org/2000/svg">
  <rect width="32" height="20" rx="2" fill="#0079BE"/>
  <circle cx="16" cy="10" r="6" fill="white"/>
  <path d="M16 4C12.6863 4 10 6.68629 10 10C10 13.3137 12.6863 16 16 16C19.3137 16 22 13.3137 22 10C22 6.68629 19.3137 4 16 4ZM16 14C13.7909 14 12 12.2091 12 10C12 7.79086 13.7909 6 16 6C18.2091 6 20 7.79086 20 10C20 12.2091 18.2091 14 16 14Z" fill="#0079BE"/>
</svg>
