<?xml version="1.0" encoding="UTF-8"?>
<svg width="24px" height="24px" viewBox="0 0 24 24" version="1.1" xmlns="http://www.w3.org/2000/svg" xmlns:xlink="http://www.w3.org/1999/xlink">
    <g stroke="none" stroke-width="1" fill="none" fill-rule="evenodd">
        <path d="M19.6,4.8 L16.8,2 L7.2,2 L4.4,4.8 L4.4,7.6 L2,10 L2,14 L4.4,16.4 L4.4,19.2 L7.2,22 L16.8,22 L19.6,19.2 L19.6,16.4 L22,14 L22,10 L19.6,7.6 L19.6,4.8 Z M12,17 C9.2,17 7,14.8 7,12 C7,9.2 9.2,7 12,7 C14.8,7 17,9.2 17,12 C17,14.8 14.8,17 12,17 Z" fill="#32BCAD"></path>
        <path d="M12,15 C10.3,15 9,13.7 9,12 C9,10.3 10.3,9 12,9 C13.7,9 15,10.3 15,12 C15,13.7 13.7,15 12,15 Z" fill="#32BCAD"></path>
    </g>
</svg>
